<svg width="16" height="16" viewBox="0 0 16 16" fill="none" xmlns="http://www.w3.org/2000/svg">
<g clip-path="url(#clip0_648_28)">
<path d="M14.9911 0.937855C14.6449 0.606068 14.1815 0.424567 13.702 0.432891C13.2225 0.441216 12.7657 0.638693 12.4311 0.9823L10.1378 3.28008C9.88583 3.5309 9.54739 3.67572 9.19198 3.68481C8.83656 3.6939 8.49116 3.56657 8.22669 3.32897L7.59558 3.96008L12 8.35119L12.6311 7.72008C12.3853 7.45538 12.2502 7.10663 12.2535 6.74543C12.2568 6.38423 12.3983 6.03801 12.6489 5.77786L14.9467 3.48008C15.286 3.14682 15.4808 2.69359 15.4891 2.21806C15.4974 1.74253 15.3186 1.28277 14.9911 0.937855V0.937855Z" fill="black"/>
<path d="M9.85783 7.46237L3.3156 14.0046C3.23459 14.0937 3.13633 14.1654 3.02677 14.2153C2.91721 14.2653 2.79864 14.2925 2.67826 14.2952C2.55788 14.298 2.4382 14.2762 2.32647 14.2313C2.21475 14.1864 2.11331 14.1193 2.02832 14.034C1.94333 13.9487 1.87655 13.847 1.83204 13.7351C1.78753 13.6233 1.76622 13.5035 1.76939 13.3831C1.77257 13.2628 1.80016 13.1443 1.85051 13.0349C1.90086 12.9255 1.9729 12.8275 2.06227 12.7468L8.60005 6.22237L7.97338 5.5957L1.43116 12.1201C1.15419 12.3936 0.974633 12.7504 0.920038 13.1358C0.865442 13.5212 0.938831 13.9138 1.12894 14.2535L0.47116 14.9113C0.388382 14.9945 0.341919 15.1072 0.341919 15.2246C0.341919 15.342 0.388382 15.4547 0.47116 15.5379C0.554432 15.6207 0.667078 15.6672 0.784493 15.6672C0.901909 15.6672 1.01455 15.6207 1.09783 15.5379L1.73783 14.8979C2.01621 15.0724 2.33817 15.1648 2.66672 15.1646C2.9047 15.1645 3.14031 15.1173 3.35999 15.0258C3.57967 14.9343 3.77907 14.8002 3.94672 14.6313L10.4889 8.09348L9.85783 7.46237Z" fill="black"/>
</g>
<defs>
<clipPath id="clip0_648_28">
<rect width="16" height="16" fill="white"/>
</clipPath>
</defs>
</svg>
