<svg width="16" height="16" viewBox="0 0 16 16" fill="none" xmlns="http://www.w3.org/2000/svg">
<path d="M0.727295 3.63614C0.727295 2.8646 1.03379 2.12466 1.57935 1.5791C2.12491 1.03354 2.86485 0.727051 3.63639 0.727051H12.3637C13.1352 0.727051 13.8751 1.03354 14.4207 1.5791C14.9663 2.12466 15.2727 2.8646 15.2727 3.63614V12.3634C15.2727 13.135 14.9663 13.8749 14.4207 14.4205C13.8751 14.966 13.1352 15.2725 12.3637 15.2725H3.63639C2.86485 15.2725 2.12491 14.966 1.57935 14.4205C1.03379 13.8749 0.727295 13.135 0.727295 12.3634V3.63614Z" stroke="black" stroke-width="1.45455" stroke-linecap="round" stroke-linejoin="round"/>
<path d="M5.45466 7.27259C6.45881 7.27259 7.27284 6.45857 7.27284 5.45441C7.27284 4.45026 6.45881 3.63623 5.45466 3.63623C4.4505 3.63623 3.63647 4.45026 3.63647 5.45441C3.63647 6.45857 4.4505 7.27259 5.45466 7.27259Z" stroke="black" stroke-width="1.45455" stroke-linecap="round" stroke-linejoin="round"/>
<path d="M9.8372 8.45159L3.63647 15.2727H12.4605C13.2064 15.2727 13.9217 14.9764 14.4491 14.449C14.9765 13.9215 15.2728 13.2062 15.2728 12.4603V12.3636C15.2728 12.0247 15.1456 11.8945 14.9165 11.6436L11.9856 8.44722C11.849 8.29821 11.6828 8.17932 11.4977 8.09811C11.3126 8.01691 11.1126 7.97518 10.9104 7.97559C10.7083 7.976 10.5084 8.01854 10.3237 8.1005C10.1389 8.18245 9.97319 8.30203 9.8372 8.45159V8.45159Z" stroke="black" stroke-width="1.45455" stroke-linecap="round" stroke-linejoin="round"/>
</svg>
