<svg width="32" height="24" viewBox="0 0 32 24" fill="none" xmlns="http://www.w3.org/2000/svg">
<g clip-path="url(#clip0_607_3)">
<path d="M24.4499 14.66C24.3003 14.81 24.2163 15.0131 24.2163 15.225C24.2163 15.4368 24.3003 15.64 24.4499 15.79C24.5235 15.8653 24.6114 15.9251 24.7084 15.9659C24.8054 16.0068 24.9096 16.0278 25.0149 16.0278C25.1202 16.0278 25.2244 16.0068 25.3214 15.9659C25.4184 15.9251 25.5063 15.8653 25.5799 15.79L29.0899 12L25.6199 8.25999C25.5497 8.18135 25.4645 8.11755 25.3693 8.07235C25.2741 8.02715 25.1708 8.00147 25.0655 7.99681C24.9601 7.99215 24.855 8.00861 24.7561 8.04522C24.6573 8.08183 24.5668 8.13785 24.4899 8.20999C24.3403 8.35996 24.2563 8.56315 24.2563 8.77499C24.2563 8.98682 24.3403 9.19001 24.4899 9.33999L26.1699 11.2L5.82991 11.2L7.54991 9.33999C7.63336 9.26576 7.70034 9.17488 7.74654 9.0732C7.79275 8.97152 7.81715 8.8613 7.81818 8.74962C7.81921 8.63794 7.79684 8.52728 7.75252 8.42477C7.7082 8.32225 7.6429 8.23015 7.56084 8.1544C7.47877 8.07865 7.38175 8.02092 7.27603 7.98493C7.1703 7.94893 7.05821 7.93548 6.94697 7.94542C6.83573 7.95537 6.7278 7.9885 6.63014 8.04267C6.53248 8.09685 6.44724 8.17088 6.37991 8.25999L2.90991 12L6.37991 15.74C6.45349 15.8153 6.54138 15.8751 6.6384 15.9159C6.73543 15.9568 6.83964 15.9778 6.94491 15.9778C7.05018 15.9778 7.1544 15.9568 7.25142 15.9159C7.34845 15.8751 7.43633 15.8153 7.50991 15.74C7.65952 15.59 7.74354 15.3868 7.74354 15.175C7.74354 14.9631 7.65952 14.76 7.50991 14.61L5.82991 12.8L26.1699 12.8L24.4499 14.66Z" fill="black"/>
<path d="M0 2L0 22C0 22.5304 0.210714 23.0391 0.585786 23.4142C0.960859 23.7893 1.46957 24 2 24L30 24C30.5304 24 31.0391 23.7893 31.4142 23.4142C31.7893 23.0391 32 22.5304 32 22V2C32 1.46957 31.7893 0.96086 31.4142 0.585787C31.0391 0.210714 30.5304 0 30 0L2 0C1.46957 0 0.960859 0.210714 0.585786 0.585787C0.210714 0.96086 0 1.46957 0 2ZM30 2V22H2L2 2L30 2Z" fill="black"/>
</g>
<defs>
<clipPath id="clip0_607_3">
<rect width="24" height="32" fill="white" transform="translate(0 24) rotate(-90)"/>
</clipPath>
</defs>
</svg>
