<svg width="24" height="32" viewBox="0 0 24 32" fill="none" xmlns="http://www.w3.org/2000/svg">
<path d="M9.34001 24.4502C9.19004 24.3005 8.98685 24.2165 8.77501 24.2165C8.56318 24.2165 8.35999 24.3005 8.21001 24.4502C8.13472 24.5237 8.0749 24.6116 8.03405 24.7086C7.99321 24.8057 7.97217 24.9099 7.97217 25.0152C7.97217 25.1204 7.99321 25.2246 8.03405 25.3217C8.0749 25.4187 8.13472 25.5066 8.21001 25.5802L12 29.0902L15.74 25.6202C15.8187 25.55 15.8825 25.4648 15.9276 25.3695C15.9728 25.2743 15.9985 25.171 16.0032 25.0657C16.0079 24.9604 15.9914 24.8552 15.9548 24.7564C15.9182 24.6575 15.8621 24.567 15.79 24.4902C15.64 24.3405 15.4369 24.2565 15.225 24.2565C15.0132 24.2565 14.81 24.3405 14.66 24.4902L12.8 26.1702V5.83016L14.66 7.55016C14.7342 7.6336 14.8251 7.70059 14.9268 7.74679C15.0285 7.79299 15.1387 7.81739 15.2504 7.81842C15.3621 7.81945 15.4727 7.79709 15.5752 7.75276C15.6777 7.70844 15.7698 7.64315 15.8456 7.56108C15.9214 7.47901 15.9791 7.382 16.0151 7.27627C16.0511 7.17055 16.0645 7.05845 16.0546 6.94721C16.0446 6.83597 16.0115 6.72805 15.9573 6.63038C15.9031 6.53272 15.8291 6.44748 15.74 6.38016L12 2.91016L8.26001 6.38016C8.18472 6.45374 8.1249 6.54162 8.08405 6.63865C8.04321 6.73567 8.02217 6.83988 8.02217 6.94516C8.02217 7.05043 8.04321 7.15464 8.08405 7.25167C8.1249 7.34869 8.18472 7.43658 8.26001 7.51016C8.40999 7.65977 8.61318 7.74379 8.82501 7.74379C9.03685 7.74379 9.24004 7.65977 9.39001 7.51016L11.2 5.83016V26.1702L9.34001 24.4502Z" fill="black"/>
<path d="M22 0H2C1.46957 0 0.960859 0.210714 0.585786 0.585786C0.210714 0.960859 0 1.46957 0 2V30C0 30.5304 0.210714 31.0391 0.585786 31.4142C0.960859 31.7893 1.46957 32 2 32H22C22.5304 32 23.0391 31.7893 23.4142 31.4142C23.7893 31.0391 24 30.5304 24 30V2C24 1.46957 23.7893 0.960859 23.4142 0.585786C23.0391 0.210714 22.5304 0 22 0ZM22 30H2V2H22V30Z" fill="black"/>
</svg>
