<svg width="16" height="17" viewBox="0 0 16 17" fill="none" xmlns="http://www.w3.org/2000/svg">
<g clip-path="url(#clip0_619_8)">
<path d="M6.73684 13.9737C8.23156 13.9734 9.6832 13.473 10.8606 12.5522L14.5625 16.2541L15.7533 15.0634L12.0514 11.3615C12.9726 10.1839 13.4733 8.73195 13.4737 7.23684C13.4737 3.52232 10.4514 0.5 6.73684 0.5C3.02232 0.5 0 3.52232 0 7.23684C0 10.9514 3.02232 13.9737 6.73684 13.9737ZM6.73684 2.18421C9.52337 2.18421 11.7895 4.45032 11.7895 7.23684C11.7895 10.0234 9.52337 12.2895 6.73684 12.2895C3.95032 12.2895 1.68421 10.0234 1.68421 7.23684C1.68421 4.45032 3.95032 2.18421 6.73684 2.18421Z" fill="black"/>
</g>
<defs>
<clipPath id="clip0_619_8">
<rect width="16" height="16" fill="white" transform="translate(0 0.5)"/>
</clipPath>
</defs>
</svg>
