<svg width="16" height="16" viewBox="0 0 16 16" fill="none" xmlns="http://www.w3.org/2000/svg">
<path d="M15.4286 0H0.571429C0.255357 0 0 0.325 0 0.727273V15.2727C0 15.675 0.255357 16 0.571429 16H15.4286C15.7446 16 16 15.675 16 15.2727V0.727273C16 0.325 15.7446 0 15.4286 0ZM14.7143 4.72727H10.9286V1.63636H14.7143V4.72727ZM14.7143 9.81818H10.9286V6.18182H14.7143V9.81818ZM6.21429 6.18182H9.78571V9.81818H6.21429V6.18182ZM9.78571 4.72727H6.21429V1.63636H9.78571V4.72727ZM1.28571 6.18182H5.07143V9.81818H1.28571V6.18182ZM1.28571 1.63636H5.07143V4.72727H1.28571V1.63636ZM1.28571 11.2727H5.07143V14.3636H1.28571V11.2727ZM6.21429 11.2727H9.78571V14.3636H6.21429V11.2727ZM14.7143 14.3636H10.9286V11.2727H14.7143V14.3636Z" fill="black"/>
</svg>
