<svg width="16" height="16" viewBox="0 0 16 16" fill="none" xmlns="http://www.w3.org/2000/svg">
  <g>
    <path xmlns="http://www.w3.org/2000/svg" 
    fill="#5f6368" 
    fill-rule="evenodd" 
    d="M9.01902793,9.72705177 C8.06535219,10.5218555 6.83851442,11 5.5,11 C2.46243388,11 0,8.53756612 0,5.5 C0,2.46243388 2.46243388,0 5.5,0 C8.53756612,0 11,2.46243388 11,5.5 C11,6.83851442 10.5218555,8.06535219 9.72705177,9.01902793 L9.98,9.27 L10.77,9.27 L14.76,13.27 L13.27,14.76 L9.27,10.77 L9.27,9.98 L9.01902793,9.72705177 Z M5.5,9.5 C7.709139,9.5 9.5,7.709139 9.5,5.5 C9.5,3.290861 7.709139,1.5 5.5,1.5 C3.290861,1.5 1.5,3.290861 1.5,5.5 C1.5,7.709139 3.290861,9.5 5.5,9.5 Z M8,6 L6,6 L6,8 L5,8 L5,6 L3,6 L3,5 L5,5 L5,3 L6,3 L6,5 L8,5 L8,6" transform="translate(2 2)"/>
  </g>
</svg>
